<svg width="12" height="12" viewBox="0 0 12 12" fill="none" xmlns="http://www.w3.org/2000/svg">
<path d="M6.00521 0.164062C2.79104 0.164062 0.171875 2.78323 0.171875 5.9974C0.171875 9.21156 2.79104 11.8307 6.00521 11.8307C9.21937 11.8307 11.8385 9.21156 11.8385 5.9974C11.8385 2.78323 9.21937 0.164062 6.00521 0.164062ZM5.56771 3.66406C5.56771 3.4249 5.76604 3.22656 6.00521 3.22656C6.24437 3.22656 6.44271 3.4249 6.44271 3.66406V6.58073C6.44271 6.8199 6.24437 7.01823 6.00521 7.01823C5.76604 7.01823 5.56771 6.8199 5.56771 6.58073V3.66406ZM6.54187 8.55239C6.51271 8.62823 6.47187 8.68656 6.41937 8.74489C6.36104 8.79739 6.29688 8.83823 6.22687 8.8674C6.15687 8.89656 6.08104 8.91406 6.00521 8.91406C5.92937 8.91406 5.85354 8.89656 5.78354 8.8674C5.71354 8.83823 5.64937 8.79739 5.59104 8.74489C5.53854 8.68656 5.49771 8.62823 5.46854 8.55239C5.43937 8.4824 5.42188 8.40656 5.42188 8.33073C5.42188 8.2549 5.43937 8.17906 5.46854 8.10906C5.49771 8.03906 5.53854 7.9749 5.59104 7.91656C5.64937 7.86406 5.71354 7.82323 5.78354 7.79406C5.92354 7.73573 6.08687 7.73573 6.22687 7.79406C6.29688 7.82323 6.36104 7.86406 6.41937 7.91656C6.47187 7.9749 6.51271 8.03906 6.54187 8.10906C6.57104 8.17906 6.58854 8.2549 6.58854 8.33073C6.58854 8.40656 6.57104 8.4824 6.54187 8.55239Z" fill="#CA3A31"/>
</svg>
