<svg width="93" height="32" viewBox="0 0 93 32" fill="none" xmlns="http://www.w3.org/2000/svg">
<path d="M8.93707 0.207193C9.21173 0.483451 9.21173 0.931354 8.93707 1.20761L7.00874 3.14721C6.94462 2.63373 6.7563 2.1323 6.46755 1.69073L7.94247 0.207193C8.21712 -0.0690644 8.66242 -0.0690644 8.93707 0.207193Z" fill="white"/>
<path d="M3.65712 11.7429C3.09449 11.7429 0 5.23478 0 3.53701C0 1.83925 1.6879 0.14148 3.65712 0.14148C4.8763 0.14148 5.87997 0.792102 6.46755 1.69073L3.69139 4.48285L2.21719 2.78821C1.96142 2.49419 1.51711 2.4644 1.22479 2.72166C0.932477 2.97893 0.902856 3.42584 1.15863 3.71987L3.12785 5.98355C3.25603 6.1309 3.43919 6.21822 3.63373 6.22474C3.82827 6.23125 4.0168 6.15638 4.15444 6.01794L7.00874 3.14721C7.02491 3.27664 7.03293 3.40682 7.03293 3.53701C7.03293 4.89522 4.08505 11.7429 3.65712 11.7429Z" fill="white"/>
<path fill-rule="evenodd" clip-rule="evenodd" d="M92.16 24.4025C92.1118 25.1537 92.1255 25.9257 92.1393 26.7006C92.1577 27.7355 92.1762 28.7756 92.0475 29.7788C91.8787 30.9672 91.091 31.7029 89.8532 31.7595H87.9402V29.4672C86.7312 31.2108 84.3968 32.0001 82.3702 31.8727C80.0634 31.7595 78.0942 30.854 76.9689 28.5338C75.6748 25.8739 77.0251 22.535 79.7821 21.5729C81.3364 20.9969 82.98 20.7499 84.6047 20.5058C85.2147 20.4141 85.8222 20.3228 86.4211 20.2147C87.884 19.9317 87.9965 18.9131 87.3776 17.7812C87.2517 17.5702 87.0945 17.4221 86.9293 17.2665C86.873 17.2135 86.8159 17.1596 86.7587 17.1021C84.902 15.6873 81.8075 16.6494 81.1886 18.8565C81.0199 19.479 80.7385 19.762 80.0071 19.479C79.557 19.3173 79.1069 19.2295 78.6568 19.1418C78.3192 19.0759 77.9816 19.0101 77.6441 18.9131C76.9126 18.7433 76.8564 18.5735 77.0251 17.8378C77.7566 15.0648 80.0634 13.1407 83.5517 12.8011C85.5209 12.6314 87.3776 12.8011 89.1218 13.8198C90.8097 14.8385 91.8787 16.3098 92.0475 18.3472C92.1531 19.7283 92.1486 20.9986 92.1442 22.2275C92.1415 22.9622 92.139 23.6826 92.16 24.4025ZM83.3829 28.364C86.1398 28.364 87.7712 27.1643 87.7712 23.2028C87.7712 23.2028 87.6027 23.3273 86.9275 23.4405C86.4938 23.5076 86.0602 23.5598 85.628 23.6118C84.6023 23.7352 83.5848 23.8576 82.5952 24.1762C80.0356 25.0344 80.8342 28.597 83.3829 28.364Z" fill="white"/>
<path d="M20.1425 19.5356V13.9329C20.1425 13.3104 20.3675 13.0275 20.9864 13.0841C21.4034 13.1222 21.8204 13.1089 22.2202 13.0962C22.4137 13.0901 22.6034 13.0841 22.7869 13.0841C24.1934 13.1407 25.1499 14.1027 25.1499 15.5175V24.9684C25.1499 26.3266 25.9376 27.2887 27.2317 27.6283C28.8071 28.0244 30.3824 27.5151 30.9451 26.4398C31.2826 25.8173 31.2826 25.1948 31.2826 24.5157V14.1027C31.2826 13.1407 31.3389 13.0841 32.2954 13.0841H33.9833C36.1781 13.0841 36.1071 15.2654 36.0348 17.4883C36.0219 17.8868 36.0089 18.2866 36.0089 18.6755C36.0089 18.7695 36.0093 18.9042 36.0097 19.0727C36.0151 20.9334 36.0323 26.9206 35.6712 27.8546C34.8272 29.7788 33.2519 30.7974 31.3389 31.3633C28.582 32.1556 25.8814 32.099 23.2932 30.6842C22.6181 30.3447 22.168 30.4579 21.5491 30.7408C18.2295 32.2688 14.91 32.2688 11.6467 30.4579C9.73374 29.3826 9.00232 27.5717 8.88979 25.5909C8.80542 22.6631 8.81594 19.7035 8.82648 16.7359V16.7351C8.83 15.7451 8.83352 14.754 8.83352 13.7632C8.83352 13.4802 8.83353 13.1407 9.17111 13.0841C9.34055 13.074 9.51176 13.0605 9.68411 13.0468C10.4846 12.9833 11.3098 12.9179 12.0968 13.1972C13.3346 13.5934 13.7284 14.3291 13.7284 15.7439V24.5157C13.7284 25.8173 14.0098 27.0057 15.4164 27.4585C16.7667 27.9112 18.0607 27.8546 19.186 26.8926C19.7486 26.3832 19.9737 25.7607 19.9737 25.025C20.1425 23.2141 20.1425 21.3465 20.1425 19.5356Z" fill="white"/>
<path fill-rule="evenodd" clip-rule="evenodd" d="M54.5758 29.3827V24.346C54.5758 23.9216 54.5794 23.4972 54.5829 23.0727C54.5934 21.7995 54.604 20.526 54.5196 19.2527C54.4633 18.4604 54.2945 17.6681 53.9569 16.8758C53.0005 14.5555 51.0875 13.5369 48.7807 13.1407C46.5864 12.8012 44.3922 12.971 42.4229 14.1594C40.9038 15.0649 39.8911 16.3665 39.3847 18.0643C39.2159 18.7434 39.441 19.0263 40.1161 19.1961C40.9601 19.3659 41.804 19.5357 42.5917 19.762C43.0981 19.9318 43.3231 19.762 43.4919 19.2527C44.3359 16.5929 46.4739 16.4797 48.6119 16.989C49.4559 17.2154 49.906 18.0077 50.131 18.8C50.3561 19.4791 49.9622 20.1582 49.2308 20.2714C48.8559 20.3369 48.4763 20.4073 48.0933 20.4782C47.1544 20.6522 46.1952 20.8299 45.2361 20.9505C44.1671 21.0636 43.1544 21.29 42.1416 21.7428C39.2722 22.9878 38.3157 25.7608 39.441 28.5904C40.3974 30.9673 42.5355 31.8728 44.8985 31.9859C46.7552 32.0991 48.4994 31.5332 49.8497 30.1184C49.9066 30.0802 49.9507 30.0292 49.9929 29.9805C50.0756 29.8847 50.1507 29.7979 50.2998 29.8354C50.4892 29.8831 50.4794 30.0911 50.4715 30.257C50.47 30.2882 50.4686 30.3179 50.4686 30.3448C50.4686 30.4814 50.4673 30.6055 50.4662 30.718C50.4609 31.2385 50.4581 31.5139 50.5934 31.6589C50.7454 31.8218 51.0715 31.8203 51.7638 31.8171C51.8675 31.8167 51.9794 31.8162 52.1002 31.8162H52.1565C53.6756 31.8162 54.5758 30.8541 54.5758 29.3827ZM50.2435 24.2328C50.1873 26.8361 48.6119 28.364 46.0238 28.364C44.3359 28.364 43.4357 27.5717 43.5482 26.1003C43.5482 25.2515 44.2234 24.4026 45.1236 24.1762C46.1357 23.8912 47.177 23.7526 48.2265 23.613L48.2273 23.6129C48.636 23.5585 49.0459 23.504 49.4559 23.4405C50.0185 23.3273 50.2435 23.6103 50.2435 24.2328Z" fill="white"/>
<path d="M73.7363 31.8727H72.8613C72.7222 31.8727 72.5826 31.8749 72.4427 31.8772C71.8826 31.8862 71.3199 31.8953 70.7796 31.7595C69.5418 31.5331 68.8103 30.7408 68.8103 29.4958V20.1015C68.8103 18.6301 67.9101 17.3851 66.6161 17.2153C64.8719 16.9323 63.5778 17.2719 62.8464 18.8565C62.6776 19.2526 62.6776 19.6487 62.6776 20.0448V30.7974C62.6776 30.8538 62.6778 30.9073 62.6779 30.9579C62.679 31.4357 62.6796 31.666 62.5655 31.7762C62.4593 31.8787 62.2537 31.8771 61.8567 31.8739C61.7812 31.8733 61.6987 31.8727 61.6086 31.8727H58.4016C58.3019 31.8727 58.2129 31.8736 58.1336 31.8743C57.789 31.8778 57.6262 31.8794 57.5514 31.7986C57.4845 31.7262 57.4882 31.5876 57.4954 31.3248C57.4982 31.2247 57.5014 31.1065 57.5014 30.9672C57.5014 30.1059 57.4979 29.2447 57.4944 28.3826L57.4944 28.3799C57.4838 25.7873 57.4732 23.1867 57.5577 20.5542C57.6139 18.7433 57.8952 16.9889 59.1893 15.5741C60.0332 14.612 61.046 14.1027 62.1713 13.7066C63.5779 13.1972 65.0407 12.9143 66.5035 13.0275C68.2477 13.1972 69.9356 13.5934 71.3985 14.6121C73.0864 15.8005 73.7615 17.5548 73.8178 19.5356C73.8178 21.4407 73.7974 23.5722 73.777 25.7037L73.777 25.7058C73.7567 27.8367 73.7363 29.9679 73.7363 31.8727Z" fill="white"/>
<path d="M6.18925 30.854V15.9702C6.18925 14.4988 5.17651 13.5368 3.76992 13.4802H2.08202C1.18181 13.4802 1.12554 13.5368 1.12554 14.4423V29.4392C1.12554 30.7408 1.91323 31.6463 3.20729 31.8161C3.88245 31.9292 4.50135 31.9292 5.12025 31.9292C6.07673 31.9292 6.18925 31.8161 6.18925 30.854Z" fill="white"/>
</svg>
